<svg width="100" height="100" viewBox="0 0 100 100" fill="none" xmlns="http://www.w3.org/2000/svg">
<path d="M49.875 47.2577C54.0869 47.2577 57.5138 43.831 57.5138 39.619C57.5138 35.4071 54.087 31.9802 49.875 31.9802C45.663 31.9802 42.2363 35.407 42.2363 39.619C42.2363 43.8309 45.663 47.2577 49.875 47.2577ZM49.875 34.7715C52.5481 34.7715 54.7221 36.9456 54.7221 39.6186C54.7221 42.2917 52.5481 44.4657 49.875 44.4657C47.202 44.4657 45.0279 42.2917 45.0279 39.6186C45.0279 36.9456 47.202 34.7715 49.875 34.7715Z" fill="white"/>
<path d="M89.566 75.6427C85.8844 70.9876 79.2962 71.9437 74.4873 72.6381C70.8581 73.165 67.386 74.3829 64.1201 76.2534C64.2388 74.0165 63.7433 71.9193 62.9337 70.0419C65.0728 66.3534 69.3161 64.326 73.5144 65.1111C75.8803 65.5508 78.023 66.842 79.5409 68.7473C80.0225 69.351 80.9018 69.4487 81.5021 68.9671C82.1058 68.4856 82.2035 67.6097 81.7219 67.006C79.7852 64.5772 77.0493 62.9301 74.0238 62.3648C69.2152 61.468 64.3508 63.4361 61.4331 67.2328C60.2815 65.4461 58.9834 63.9735 57.954 62.9545C59.0777 62.131 59.8175 60.8119 59.8175 59.3183V57.4584C61.2028 57.0885 62.3719 56.0765 62.8918 54.6946L63.157 53.9862C66.5872 54.2759 68.3635 56.8581 68.4368 56.9698C68.695 57.3781 69.1487 57.6223 69.6337 57.6189C70.1153 57.6119 70.562 57.3571 70.8132 56.9419C72.8721 53.5221 73.4165 50.3046 72.4324 47.384C71.2075 43.7444 67.9517 41.689 66.4058 40.8899C65.8893 28.4672 58.7985 16.5259 54.5378 10.4325C53.4735 8.91102 51.7322 8.00017 49.8757 8.00017C48.0227 8.00017 46.2779 8.91093 45.2135 10.4325C40.9527 16.5253 33.8619 28.4672 33.3455 40.8899C31.7996 41.689 28.5438 43.7444 27.319 47.384C26.3349 50.3083 26.8793 53.5223 28.9381 56.9419C29.1859 57.3536 29.6291 57.6049 30.1106 57.6154C30.5922 57.6223 31.0459 57.3816 31.3075 56.9803C31.3843 56.8616 33.1257 54.3037 36.5943 53.9931L36.8595 54.6945C37.3795 56.0729 38.5485 57.0849 39.9339 57.4583V59.3183C39.9339 60.8153 40.6737 62.1343 41.7973 62.9544C40.7679 63.9768 39.4697 65.446 38.3182 67.2362C35.3974 63.4395 30.5258 61.4784 25.7239 62.3647C22.6984 62.93 19.9626 64.5772 18.0258 67.0059C17.5443 67.6096 17.642 68.489 18.2457 68.967C18.8494 69.4486 19.7252 69.3509 20.2068 68.7472C21.7282 66.8419 23.8674 65.5507 26.2333 65.111C30.4313 64.3259 34.6782 66.3568 36.8176 70.0453C36.008 71.9262 35.516 74.0199 35.6347 76.2603C32.3684 74.3863 28.8927 73.1685 25.2639 72.6415C20.4552 71.9401 13.8667 70.9874 10.1852 75.6461C9.05812 77.0734 8.35667 78.846 8.10198 80.9119C7.76698 83.6233 8.62542 86.3661 10.454 88.432C12.3209 90.5432 15.0079 91.7541 17.824 91.7541L81.9282 91.7506C84.7442 91.7506 87.4277 90.5397 89.2982 88.4285C91.1268 86.3627 91.9852 83.6198 91.6502 80.9084C91.3954 78.8425 90.6975 77.0698 89.5669 75.6426L89.566 75.6427ZM38.4536 76.571C37.8499 70.4327 43.4926 65.1041 44.9618 63.8373H54.7957C56.2613 65.1041 61.8935 70.4292 61.2967 76.5674C58.9517 74.7772 55.0608 72.6276 49.8826 72.6276C44.697 72.6276 40.8027 74.7842 38.4612 76.5743L38.4536 76.571ZM42.7284 57.6188H57.029V59.3182C57.029 60.2708 56.2543 61.0455 55.3016 61.0455H44.452C43.4994 61.0455 42.7247 60.2708 42.7247 59.3182V57.6188H42.7284ZM69.7939 48.2914C70.3453 49.9386 70.1812 51.781 69.3123 53.7875C68.2201 52.7965 66.4963 51.6902 64.1722 51.2994L65.1563 48.6822C65.746 47.1188 66.1124 45.5764 66.3008 44.0724C67.557 44.9169 69.1309 46.3127 69.7904 48.2913L69.7939 48.2914ZM30.4415 53.7875C29.5726 51.781 29.4121 49.9385 29.9599 48.2914C30.6194 46.3129 32.1967 44.917 33.4495 44.0725C33.6379 45.5765 34.0043 47.1154 34.594 48.6787L35.5781 51.2959C33.2505 51.6867 31.5302 52.793 30.4379 53.7875H30.4415ZM39.4722 53.7108L38.8441 52.0392V52.0357L37.211 47.6981C36.4433 45.6567 36.0664 43.6781 36.0978 41.8182C36.2095 34.6994 38.7394 27.6543 41.6497 21.844C44.2285 22.9118 46.926 23.4981 49.7002 23.519C50.9251 23.526 52.1604 23.4318 53.3608 23.2329C54.1216 23.1073 54.6346 22.3884 54.509 21.6277C54.3833 20.8669 53.6645 20.3435 52.9037 20.4795C51.8568 20.6505 50.782 20.7238 49.7212 20.7273C47.3936 20.7064 45.1254 20.2318 42.9479 19.3629C44.5497 16.4526 46.1723 13.9436 47.5054 12.0382C48.0567 11.2496 48.9221 10.7995 49.8783 10.7995C50.8344 10.7995 51.6999 11.2531 52.2511 12.0382C56.4282 18.0124 63.467 29.8282 63.6591 41.8186C63.6905 43.6785 63.3136 45.6572 62.5459 47.6985L60.9128 52.0361V52.0396L60.2846 53.7111C60.0334 54.3776 59.3843 54.8278 58.669 54.8278H41.0916C40.3763 54.8278 39.7272 54.3776 39.4759 53.7111L39.4722 53.7108ZM87.2033 86.5829C85.8668 88.0974 83.9405 88.9629 81.927 88.9629L17.8229 88.9594C15.8059 88.9594 13.8831 88.0939 12.5467 86.5794C11.2276 85.0893 10.6344 83.1945 10.8751 81.2508C11.0636 79.698 11.5696 78.3929 12.3757 77.3739C15.0592 73.982 20.4959 74.7707 24.8619 75.4023C29.0913 76.0165 33.0974 77.6636 36.7718 80.2983C37.3267 80.6961 38.0875 80.6368 38.569 80.1517C39.9997 78.7279 43.9604 75.4163 49.8715 75.4163C55.7829 75.4163 59.7438 78.7279 61.174 80.1517C61.6556 80.6333 62.4163 80.6961 62.9711 80.2983C66.6457 77.6636 70.6553 76.0165 74.8811 75.4023C79.2501 74.7742 84.6873 73.9821 87.3673 77.3739C88.1734 78.3929 88.6794 79.698 88.8678 81.2508C89.1086 83.1981 88.5119 85.0894 87.1963 86.5794L87.2033 86.5829Z" fill="white"/>
<path d="M9.3956 16.375C11.7057 16.375 13.5831 18.2525 13.5831 20.5626C13.5831 21.3338 14.2078 21.9584 14.979 21.9584C15.7502 21.9584 16.3748 21.3338 16.3748 20.5626C16.3748 18.2525 18.2522 16.375 20.5623 16.375C21.3335 16.375 21.9582 15.7504 21.9582 14.9792C21.9582 14.208 21.3335 13.5834 20.5623 13.5834C18.2522 13.5834 16.3748 11.7059 16.3748 9.39584C16.3748 8.62464 15.7502 8 14.979 8C14.2078 8 13.5831 8.62464 13.5831 9.39584C13.5831 11.7059 11.7057 13.5834 9.3956 13.5834C8.6244 13.5834 7.99976 14.208 7.99976 14.9792C7.99976 15.7504 8.6244 16.375 9.3956 16.375ZM14.979 13.5799C15.3768 14.1103 15.8479 14.5814 16.3783 14.9792C15.8479 15.377 15.3768 15.8481 14.979 16.3785C14.5811 15.8481 14.11 15.377 13.5796 14.9792C14.1101 14.5814 14.5812 14.1103 14.979 13.5799Z" fill="white"/>
<path d="M79.1872 37.6061C81.4973 37.6061 83.3747 39.4835 83.3747 41.7936C83.3747 42.5648 83.9994 43.1895 84.7706 43.1895C85.5418 43.1895 86.1664 42.5648 86.1664 41.7936C86.1664 39.4835 88.0439 37.6061 90.3539 37.6061C91.1251 37.6061 91.7498 36.9815 91.7498 36.2103C91.7498 35.4391 91.1251 34.8144 90.3539 34.8144C88.0439 34.8144 86.1664 32.937 86.1664 30.6269C86.1664 29.8557 85.5418 29.2311 84.7706 29.2311C83.9994 29.2311 83.3747 29.8557 83.3747 30.6269C83.3747 32.937 81.4973 34.8144 79.1872 34.8144C78.416 34.8144 77.7914 35.4391 77.7914 36.2103C77.7914 36.9815 78.416 37.6061 79.1872 37.6061ZM84.7706 34.8109C85.1684 35.3414 85.6395 35.8125 86.1699 36.2103C85.6395 36.6081 85.1684 37.0792 84.7706 37.6096C84.3728 37.0792 83.9017 36.6081 83.3713 36.2103C83.9017 35.8125 84.3728 35.3414 84.7706 34.8109Z" fill="white"/>
</svg>
