<svg width="100" height="100" viewBox="0 0 100 100" fill="none" xmlns="http://www.w3.org/2000/svg">
<path fill-rule="evenodd" clip-rule="evenodd" d="M50.426 5.001C60.477 5.001 69.617 6.5283 76.27 8.9971C83.438 11.6573 87.821 15.4971 87.856 19.9851V80.0161C87.856 84.4731 83.4302 88.3442 76.27 91.0041C61.922 96.3322 38.934 96.3322 24.582 91.0041C17.4258 88.3479 13 84.4729 13 80.0161V19.9301C13.0352 15.4965 17.4531 11.6449 24.582 8.9961C31.2343 6.5273 40.375 5.001 50.426 5.001ZM84.391 26.47C71.411 37.775 29.442 37.775 16.457 26.47V39.993C16.457 42.8563 20.0195 45.6102 25.7851 47.7508C39.3161 52.7742 61.5311 52.7742 75.0621 47.7508C80.8238 45.6102 84.3863 42.8563 84.3863 39.993L84.391 26.47ZM16.461 46.482V60.005C16.461 62.8683 20.0235 65.6222 25.7891 67.7628C39.3201 72.7862 61.5351 72.7862 75.0661 67.7628C80.8278 65.6222 84.3903 62.8683 84.3903 60.005V46.482C71.4063 57.787 29.446 57.787 16.461 46.482ZM16.461 66.494V80.017C16.461 82.8803 20.0235 85.6342 25.7891 87.7748C39.3201 92.7982 61.5351 92.7982 75.0661 87.7748C80.8278 85.6342 84.3903 82.8803 84.3903 80.017V66.494C71.4063 77.799 29.446 77.799 16.461 66.494ZM75.066 12.232C61.535 7.2086 39.32 7.2086 25.789 12.232C13.375 16.8414 13.375 23.134 25.789 27.744C39.32 32.7674 61.535 32.7674 75.066 27.744C87.48 23.1346 87.48 16.842 75.066 12.232Z" fill="white"/>
</svg>
