<svg width="100" height="100" viewBox="0 0 100 100" fill="none" xmlns="http://www.w3.org/2000/svg">
<path d="M76.4372 37.0508V27.1328C76.4372 26.8164 76.3161 26.5078 76.0934 26.2813L59.4804 9.36328C59.2499 9.13281 58.9414 9 58.6132 9H29.7812C26.0937 9.00391 23.1054 11.9883 23.0937 15.6758V37.0198L14.4492 44.051C14.168 44.2854 14.0039 44.633 14 45.0002V86.1332C14.0039 88.8754 16.2266 91.098 18.9688 91.102H80.5308C83.273 91.0981 85.4956 88.8754 85.4996 86.1332V45.0002C85.4957 44.633 85.3316 44.2854 85.0504 44.051L76.4372 37.0508ZM82.3552 45L76.406 49.832V40.164L82.3552 45ZM82.8864 87.051L59.5114 66.719L83.0814 47.563V86.106V86.1021C83.0736 86.4303 83.0075 86.7503 82.8864 87.051ZM59.5114 12.875L72.2924 25.906H63.7612C61.4096 25.8982 59.5112 23.9919 59.5112 21.6443L59.5114 12.875ZM29.7814 11.4375H57.0434V21.6445C57.0434 25.3398 60.0356 28.3359 63.7309 28.3437H73.9379V51.8207L56.3439 66.1757C52.4962 69.2812 47.0041 69.2812 43.1559 66.1757L25.5309 51.8207V15.6757C25.5426 13.3359 27.4416 11.4414 29.7814 11.4375ZM16.7814 87.3825C16.5587 87.0036 16.4416 86.574 16.4377 86.1325V47.5895L40.2697 66.9685L16.7814 87.3825ZM23.0939 40.1635V49.8315L17.1447 44.9995L23.0939 40.1635ZM19.0314 88.6635L42.1444 68.5615L41.8944 68.2686C46.5194 71.8272 52.9604 71.8272 57.5824 68.2686L81.0004 88.5926C80.8559 88.6004 80.7074 88.6004 80.5629 88.5926L19.0314 88.6635ZM41.0314 37.6865C45.422 37.6865 49.3791 35.042 51.0584 30.9834C52.7381 26.9287 51.8123 22.2607 48.7068 19.1554C45.6013 16.0501 40.9334 15.1242 36.8788 16.8038C32.8202 18.4835 30.1757 22.4405 30.1757 26.8308C30.1835 32.823 35.0397 37.6795 41.0314 37.6865ZM35.0939 32.792V32.7881C35.6213 31.4053 36.6095 30.2451 37.8947 29.5069C38.7814 30.2218 39.883 30.6085 41.0197 30.6124C42.1564 30.6085 43.258 30.2218 44.1447 29.5186C45.4299 30.253 46.422 31.4092 46.9494 32.7881C45.3752 34.3662 43.2385 35.249 41.0119 35.249C38.7853 35.249 36.6486 34.3662 35.0744 32.7881L35.0939 32.792ZM41.0314 28.1748C39.9728 28.1748 39.0197 27.5381 38.6173 26.5615C38.2111 25.585 38.4337 24.4599 39.1837 23.7099C39.9298 22.9638 41.0548 22.7412 42.0314 23.1435C43.008 23.5498 43.6447 24.5029 43.6447 25.5615C43.6447 27.0029 42.4767 28.1748 41.0314 28.1748ZM41.0314 18.4131C43.9376 18.4092 46.6447 19.9053 48.1798 22.374C49.715 24.8467 49.8634 27.9326 48.5743 30.5381C47.8595 29.3311 46.8595 28.3115 45.6681 27.5693C45.9416 26.9365 46.0822 26.2529 46.0822 25.5615C46.0822 22.7685 43.8205 20.5068 41.0314 20.5068C38.2423 20.5068 35.9806 22.7685 35.9806 25.5615C35.9806 26.253 36.1251 26.9365 36.4064 27.5693C35.2111 28.3115 34.2072 29.331 33.4884 30.5381C32.1993 27.9326 32.3478 24.8467 33.8829 22.374C35.4181 19.9052 38.1252 18.4092 41.0314 18.4131ZM43.8126 42.8931H68.5006V45.3306H43.8126V42.8931ZM40.5626 42.8931V45.3306H31.0001V42.8931H40.5626ZM31.0001 49.3931H68.5001V51.8306H31.0001V49.3931ZM39.3321 55.8931H60.1681V58.3814H39.3321V55.8931Z" fill="white"/>
</svg>
