<svg width="100" height="100" viewBox="0 0 100 100" fill="none" xmlns="http://www.w3.org/2000/svg">
<path d="M29.1676 95.735C28.9691 95.735 28.7725 95.6959 28.5891 95.6199C28.4058 95.544 28.2391 95.4326 28.0988 95.2922L6.46727 73.6591C6.32689 73.5188 6.21553 73.3521 6.13956 73.1688C6.06358 72.9854 6.02448 72.7889 6.02448 72.5904C6.02448 72.3919 6.06358 72.1954 6.13956 72.012C6.21553 71.8286 6.32689 71.662 6.46727 71.5217L12.5402 65.4458C12.924 65.0648 13.4044 64.7955 13.9298 64.667C14.4552 64.5386 15.0057 64.5557 15.522 64.7166C17.0692 62.898 19.2818 60.748 21.5744 62.9777L31.5916 52.9605C31.7319 52.8201 31.8986 52.7087 32.0819 52.6327C32.2653 52.5567 32.4619 52.5176 32.6604 52.5176H66.4642C67.5173 52.4953 68.5578 52.7495 69.4819 53.2549C70.4061 53.7602 71.1816 54.499 71.7311 55.3976L80.9039 46.1746C82.3572 44.7655 84.3058 43.9834 86.33 43.9968C88.3542 44.0103 90.2922 44.8181 91.7267 46.2464C93.1612 47.6747 93.9774 49.6092 93.9995 51.6333C94.0217 53.6575 93.2481 55.6094 91.8452 57.0687C91.6032 57.3078 72.7703 76.117 72.7703 76.117C72.1803 76.7087 71.4789 77.1777 70.7066 77.4969C69.9344 77.8162 69.1066 77.9793 68.271 77.977H42.2435L39.3443 80.8968C40.5891 83.1096 38.579 84.8605 37.0444 86.2317C37.2062 86.7486 37.2235 87.3 37.0945 87.8261C36.9654 88.3522 36.6949 88.833 36.3122 89.2164L30.2363 95.2921C30.096 95.4325 29.9294 95.5439 29.746 95.6199C29.5626 95.6959 29.3661 95.735 29.1676 95.735ZM9.66458 72.5829L29.1676 92.0859L34.1422 87.1098L14.592 67.5831L9.66458 72.5829ZM17.9045 66.5927L35.1638 83.855C35.7106 83.3996 36.2101 82.8902 36.6547 82.3346C36.6205 82.2987 36.2356 81.914 36.2148 81.8932L19.3629 65.0413C19.1981 65.1673 18.3196 66.1384 17.9045 66.5927ZM23.7235 65.1018L37.2806 78.6839C38.3199 77.8087 40.6951 74.7376 41.6145 74.9536H68.271C69.1563 74.9518 70.0051 74.6006 70.6328 73.9764C83.5906 61.0393 88.0545 56.5813 89.8554 55.1539L89.6664 54.9723C90.5326 54.089 91.0154 52.8997 91.0099 51.6626C91.0044 50.4254 90.5111 49.2404 89.6371 48.3648C88.7631 47.4893 87.579 46.9938 86.3419 46.9861C85.1048 46.9784 83.9145 47.459 83.0297 48.3237L72.6611 58.7483C72.6889 59.5721 72.5492 60.3929 72.2506 61.1611C71.9519 61.9293 71.5006 62.6289 70.9237 63.2176C70.3469 63.8063 69.6566 64.2718 68.8947 64.586C68.1327 64.9002 67.3149 65.0566 66.4908 65.0456H43.9705C43.5696 65.0456 43.1851 64.8864 42.9016 64.6029C42.6182 64.3194 42.4589 63.9349 42.4589 63.534C42.4589 63.1331 42.6182 62.7486 42.9016 62.4652C43.1851 62.1817 43.5696 62.0224 43.9705 62.0224H66.4642C67.3237 62.0189 68.1466 61.6741 68.7519 61.0639C69.3572 60.4536 69.6953 59.6279 69.6918 58.7684C69.6883 57.9088 69.3435 57.0859 68.7332 56.4806C68.123 55.8753 67.2973 55.5373 66.4377 55.5408H33.2861L23.7235 65.1018ZM77.5944 43.6163H28.2376C26.9993 43.6148 25.8122 43.1223 24.9366 42.2467C24.061 41.3711 23.5685 40.184 23.567 38.9458C23.5677 34.6655 23.5624 18.2421 23.567 14.2909V9.4595C23.5685 8.22124 24.061 7.03411 24.9366 6.15853C25.8122 5.28295 26.9993 4.7904 28.2376 4.78894H77.5944C78.8327 4.79041 80.0198 5.28296 80.8954 6.15854C81.771 7.03412 82.2635 8.22124 82.265 9.4595V14.2909C82.268 14.322 82.268 14.353 82.268 14.3854C82.2656 18.1676 82.2644 34.8411 82.265 38.9457C82.2635 40.1839 81.771 41.3711 80.8954 42.2467C80.0198 43.1223 78.8327 43.6148 77.5944 43.6163ZM26.5902 21.4946V38.9458C26.5906 39.3825 26.7643 39.8013 27.0732 40.1102C27.382 40.419 27.8008 40.5927 28.2376 40.5931H77.5944C78.0312 40.5927 78.45 40.419 78.7588 40.1102C79.0677 39.8013 79.2414 39.3825 79.2418 38.9458V21.4946H26.5902ZM26.5902 18.4714H79.2417V15.897H26.5902V18.4714ZM26.5902 12.8738H79.2417C79.0601 11.1302 80.0195 7.90677 77.5944 7.81211H28.2376C25.8087 7.90861 26.7735 11.1321 26.5902 12.8738ZM74.465 37.3146H68.2681C68.0695 37.3147 67.8729 37.2757 67.6895 37.1998C67.506 37.1238 67.3393 37.0125 67.199 36.8721C67.0586 36.7317 66.9472 36.5651 66.8713 36.3816C66.7954 36.1982 66.7564 36.0016 66.7565 35.803V29.6091C66.7564 29.4105 66.7954 29.2139 66.8713 29.0305C66.9472 28.847 67.0586 28.6803 67.1989 28.5399C67.3393 28.3996 67.506 28.2882 67.6895 28.2123C67.8729 28.1364 68.0695 28.0974 68.2681 28.0975H74.465C74.6635 28.0974 74.8601 28.1364 75.0435 28.2123C75.227 28.2882 75.3937 28.3996 75.5341 28.5399C75.6744 28.6803 75.7858 28.847 75.8617 29.0305C75.9376 29.2139 75.9767 29.4105 75.9765 29.6091V35.803C75.9766 36.0016 75.9376 36.1982 75.8617 36.3816C75.7858 36.5651 75.6744 36.7317 75.5341 36.8721C75.3937 37.0125 75.227 37.1238 75.0435 37.1998C74.8601 37.2757 74.6635 37.3147 74.465 37.3146ZM69.7796 34.2914H72.9534V31.1206H69.7796V34.2914ZM44.434 35.5757C43.0807 35.434 40.1139 36.2377 40.0676 34.0641C40.1127 31.8908 43.0836 32.6937 44.434 32.5525C44.8297 32.5604 45.2065 32.7232 45.4835 33.0058C45.7605 33.2884 45.9157 33.6684 45.9157 34.0641C45.9157 34.4598 45.7605 34.8398 45.4835 35.1224C45.2065 35.405 44.8297 35.5678 44.434 35.5757ZM53.5626 35.3336C52.2093 35.1919 49.2425 35.9957 49.1961 33.822C49.2412 31.6487 52.2122 32.4516 53.5626 32.3104C53.9581 32.3185 54.3347 32.4813 54.6116 32.7639C54.8884 33.0465 55.0435 33.4264 55.0435 33.822C55.0435 34.2176 54.8884 34.5975 54.6116 34.88C54.3347 35.1626 53.9581 35.3255 53.5626 35.3336ZM35.5682 35.3336C34.2149 35.1919 31.2481 35.9957 31.2018 33.822C31.2468 31.6487 34.2178 32.4516 35.5682 32.3104C35.9638 32.3185 36.3404 32.4813 36.6172 32.7639C36.8941 33.0465 37.0492 33.4263 37.0492 33.8219C37.0492 34.2175 36.8941 34.5974 36.6173 34.88C36.3404 35.1626 35.9637 35.3255 35.5682 35.3336Z" fill="white"/>
</svg>
