<svg width="100" height="100" viewBox="0 0 100 100" fill="none" xmlns="http://www.w3.org/2000/svg">
<path d="M87.6875 8H12.6875C10.1094 8 8 10.1094 8 12.6875V87.6875C8 90.2656 10.1094 92.375 12.6875 92.375H87.6875C90.2656 92.375 92.375 90.2656 92.375 87.6875V12.6875C92.375 10.1094 90.2656 8 87.6875 8ZM89.25 12.6875V20.5H39.453L40.6249 11.125H87.6869C88.5463 11.125 89.25 11.8281 89.25 12.6875ZM12.688 11.125H37.485L36.3131 20.5H11.1251V12.6875C11.1251 11.8281 11.8286 11.125 12.688 11.125ZM11.1255 87.687V23.625H48.6255V89.25H12.6875C11.8281 89.25 11.1255 88.5464 11.1255 87.687ZM87.6875 89.2495H51.7495V23.6245H89.2495V87.6865C89.2495 88.5459 88.5469 89.2495 87.6875 89.2495ZM14.2495 15.8115C14.2495 14.9521 14.9526 14.249 15.812 14.249C16.6714 14.249 17.3745 14.9521 17.3745 15.8115C17.3745 16.6709 16.6714 17.374 15.812 17.374C14.9526 17.374 14.2495 16.6709 14.2495 15.8115ZM22.062 15.8115C22.062 14.9521 22.7651 14.249 23.6245 14.249C24.4839 14.249 25.187 14.9521 25.187 15.8115C25.187 16.6709 24.4839 17.374 23.6245 17.374C22.7651 17.374 22.062 16.6709 22.062 15.8115ZM29.8745 15.8115C29.8745 14.9521 30.5776 14.249 31.437 14.249C32.2964 14.249 32.9995 14.9521 32.9995 15.8115C32.9995 16.6709 32.2964 17.374 31.437 17.374C30.5776 17.374 29.8745 16.6709 29.8745 15.8115ZM23.6245 61.5145C23.6245 60.6551 24.3276 59.952 25.187 59.952H32.9995C33.8589 59.952 34.562 60.6551 34.562 61.5145C34.562 62.3739 33.8589 63.077 32.9995 63.077H25.187C24.3276 63.077 23.6245 62.3739 23.6245 61.5145ZM25.187 70.8895C25.187 71.7489 24.4839 72.452 23.6245 72.452H15.812C14.9526 72.452 14.2495 71.7489 14.2495 70.8895C14.2495 70.0301 14.9526 69.327 15.812 69.327H23.6245C24.4839 69.327 25.187 70.0301 25.187 70.8895ZM45.499 80.2645C45.499 81.1239 44.7959 81.827 43.9365 81.827H36.124C35.2646 81.827 34.5615 81.1239 34.5615 80.2645C34.5615 79.4051 35.2646 78.702 36.124 78.702H43.9365C44.7959 78.702 45.499 79.4051 45.499 80.2645ZM14.249 61.5145C14.249 60.6551 14.9521 59.952 15.8115 59.952H18.9365C19.7959 59.952 20.499 60.6551 20.499 61.5145C20.499 62.3739 19.7959 63.077 18.9365 63.077H15.8115C14.9521 63.077 14.249 62.3739 14.249 61.5145ZM45.499 70.8895C45.499 71.7489 44.7959 72.452 43.9365 72.452H40.8115C39.9521 72.452 39.249 71.7489 39.249 70.8895C39.249 70.0301 39.9521 69.327 40.8115 69.327H43.9365C44.7959 69.327 45.499 70.0301 45.499 70.8895ZM31.437 80.2645C31.437 81.1239 30.7339 81.827 29.8745 81.827H26.7495C25.8901 81.827 25.187 81.1239 25.187 80.2645C25.187 79.4051 25.8901 78.702 26.7495 78.702H29.8745C30.7339 78.702 31.437 79.4051 31.437 80.2645ZM45.499 61.5145C45.499 62.3739 44.7959 63.077 43.9365 63.077H39.249C38.3896 63.077 37.6865 62.3739 37.6865 61.5145C37.6865 60.6551 38.3896 59.952 39.249 59.952H43.9365C44.7959 59.952 45.499 60.6551 45.499 61.5145ZM34.561 69.327C35.4204 69.327 36.1235 70.0301 36.1235 70.8895C36.1235 71.7489 35.4204 72.452 34.561 72.452H29.8735C29.0141 72.452 28.311 71.7489 28.311 70.8895C28.311 70.0301 29.0141 69.327 29.8735 69.327H34.561ZM22.061 80.265C22.061 81.1244 21.3579 81.8275 20.4985 81.8275H15.811C14.9516 81.8275 14.2485 81.1244 14.2485 80.265C14.2485 79.4056 14.9516 78.7025 15.811 78.7025H20.4985C21.3579 78.7025 22.061 79.4056 22.061 80.265ZM37.311 45.468L41.4985 41.9836L37.311 38.4992C36.6548 37.9523 36.561 36.968 37.1079 36.2961C37.6548 35.6242 38.6391 35.5461 39.311 36.093L44.936 40.7805C45.2954 41.0774 45.4985 41.5149 45.4985 41.9836C45.4985 42.4523 45.2954 42.8898 44.936 43.1867L39.311 47.8742C39.0141 48.1242 38.6704 48.2336 38.311 48.2336C37.8579 48.2336 37.4204 48.0461 37.1079 47.6711C36.561 47.0148 36.6391 46.0149 37.311 45.468ZM14.811 43.1868C14.4516 42.8899 14.2485 42.4524 14.2485 41.9837C14.2485 41.515 14.4516 41.0775 14.811 40.7806L20.436 36.0931C21.1079 35.5462 22.0766 35.6243 22.6391 36.2962C23.186 36.9525 23.1078 37.9524 22.436 38.4993L18.2485 41.9837L22.436 45.4681C23.0922 46.015 23.186 46.9993 22.6391 47.6712C22.3266 48.0462 21.8891 48.2337 21.436 48.2337C21.0766 48.2337 20.7329 48.1087 20.436 47.8743L14.811 43.1868ZM26.014 50.9837L30.7015 32.2337C30.9046 31.3899 31.7484 30.8743 32.5921 31.0931C33.4358 31.2962 33.9359 32.1556 33.7327 32.9837L29.0452 51.7337C28.8733 52.4524 28.2327 52.9212 27.5296 52.9212C27.4046 52.9212 27.2796 52.9212 27.1546 52.8743C26.3109 52.6712 25.8108 51.8118 26.014 50.9837ZM82.998 28.3117H57.998C57.1386 28.3117 56.4355 29.0148 56.4355 29.8742V42.3742C56.4355 43.2336 57.1386 43.9367 57.998 43.9367H82.998C83.8574 43.9367 84.5605 43.2336 84.5605 42.3742V29.8742C84.5605 29.0148 83.8574 28.3117 82.998 28.3117ZM81.4355 40.8117H59.5605V31.4367H81.4355V40.8117ZM82.998 48.6242H57.998C57.1386 48.6242 56.4355 49.3273 56.4355 50.1867V62.6867C56.4355 63.5461 57.1386 64.2492 57.998 64.2492H82.998C83.8574 64.2492 84.5605 63.5461 84.5605 62.6867V50.1867C84.5605 49.3273 83.8574 48.6242 82.998 48.6242ZM81.4355 61.1242H59.5605V51.7492H81.4355V61.1242ZM67.3735 68.9367H57.9985C57.1391 68.9367 56.436 69.6398 56.436 70.4992V82.9992C56.436 83.8586 57.1391 84.5617 57.9985 84.5617H67.3735C68.2329 84.5617 68.936 83.8586 68.936 82.9992V70.4992C68.936 69.6398 68.2329 68.9367 67.3735 68.9367ZM65.811 81.4367H59.561V72.0617H65.811V81.4367ZM82.999 68.9367H73.624C72.7646 68.9367 72.0615 69.6398 72.0615 70.4992V82.9992C72.0615 83.8586 72.7646 84.5617 73.624 84.5617H82.999C83.8584 84.5617 84.5615 83.8586 84.5615 82.9992V70.4992C84.5615 69.6398 83.8584 68.9367 82.999 68.9367ZM81.4365 81.4367H75.1865V72.0617H81.4365V81.4367Z" fill="white"/>
</svg>
