<svg width="100" height="100" viewBox="0 0 100 100" fill="none" xmlns="http://www.w3.org/2000/svg">
<path d="M50.1836 8H50.168C26.93 8.00781 8.008 26.926 8 50.168C7.9961 61.473 12.5781 72.109 20.898 80.109C29.1324 88.0192 39.96 92.375 51.39 92.375H57.6791C67.1283 92.375 70.4991 87.5312 70.4991 83C70.4991 77.832 66.2921 73.625 61.1241 73.625H57.9991C54.5538 73.625 51.7491 70.8203 51.7491 67.375C51.7491 63.9297 54.5538 61.125 57.9991 61.125H82.6471C88.0143 61.125 92.3737 56.7617 92.3737 51.3984C92.3737 39.9684 88.0143 29.1404 80.1037 20.9064C72.1115 12.5822 61.4867 8.0004 50.1817 8.0004L50.1836 8ZM82.6486 58H58.0006C52.8326 58 48.6256 62.207 48.6256 67.375C48.6256 72.543 52.8326 76.75 58.0006 76.75H61.1256C64.5709 76.75 67.3756 79.5547 67.3756 83C67.3756 86.9141 63.7506 89.25 57.6803 89.25H51.3912C40.7742 89.25 30.7112 85.2031 23.0672 77.855C15.3602 70.4527 11.1222 60.617 11.1262 50.171C11.134 28.648 28.6492 11.132 50.1692 11.124H50.1849C60.6299 11.124 70.4549 15.3662 77.8529 23.069C85.2045 30.7174 89.2479 40.78 89.2479 51.397C89.2518 55.0376 86.2909 57.9986 82.6502 57.9986L82.6486 58Z" fill="white"/>
<path d="M50.1876 15.8125C45.879 15.8125 42.3751 19.3203 42.3751 23.625C42.3751 27.9297 45.879 31.4375 50.1876 31.4375C54.4962 31.4375 58.0001 27.9297 58.0001 23.625C58.0001 19.3203 54.4962 15.8125 50.1876 15.8125ZM50.1876 28.3125C47.6017 28.3125 45.5001 26.2109 45.5001 23.625C45.5001 21.0391 47.6017 18.9375 50.1876 18.9375C52.7735 18.9375 54.8751 21.0391 54.8751 23.625C54.8751 26.2109 52.7735 28.3125 50.1876 28.3125Z" fill="white"/>
<path d="M31.4376 50.1875C31.4376 45.8828 27.9337 42.375 23.6251 42.375C19.3165 42.375 15.8126 45.8828 15.8126 50.1875C15.8126 54.4922 19.3165 58 23.6251 58C27.9337 58 31.4376 54.4922 31.4376 50.1875ZM18.9376 50.1875C18.9376 47.6016 21.0392 45.5 23.6251 45.5C26.211 45.5 28.3126 47.6016 28.3126 50.1875C28.3126 52.7734 26.211 54.875 23.6251 54.875C21.0392 54.875 18.9376 52.7734 18.9376 50.1875Z" fill="white"/>
<path d="M63.4456 25.8825C60.3987 28.9294 60.3987 33.8864 63.4456 36.9335C64.9222 38.4101 66.8831 39.2226 68.969 39.2226C71.0549 39.2226 73.0159 38.4101 74.4924 36.9335C77.5393 33.8866 77.5393 28.9296 74.4924 25.8825C71.5393 22.9294 66.3988 22.9294 63.4456 25.8825ZM72.2854 34.7184C70.512 36.4918 67.426 36.4918 65.6565 34.7184C63.8284 32.8903 63.8284 29.9137 65.6565 28.0856C66.5393 27.2028 67.7151 26.7145 68.9729 26.7145C70.2229 26.7145 71.4026 27.2028 72.2893 28.0856C74.1135 29.9176 74.1135 32.8903 72.2854 34.7184Z" fill="white"/>
<path d="M25.8826 63.4455C22.8357 66.4924 22.8357 71.4494 25.8826 74.4965C27.3592 75.9731 29.324 76.7856 31.406 76.7856C33.4919 76.7856 35.4568 75.9731 36.9294 74.4965C39.9763 71.4496 39.9763 66.4926 36.9294 63.4455C33.9802 60.4963 28.8358 60.4924 25.8826 63.4455ZM34.7185 72.2853C32.9568 74.0548 29.863 74.0587 28.0896 72.2853C26.2615 70.4572 26.2615 67.4806 28.0896 65.6525C28.9724 64.7697 30.1521 64.2814 31.406 64.2814C32.6599 64.2814 33.8357 64.7697 34.7224 65.6525C36.5466 67.4845 36.5466 70.4572 34.7185 72.2853Z" fill="white"/>
<path d="M25.8826 25.8825C22.8357 28.9294 22.8357 33.8864 25.8826 36.9335C27.3592 38.4101 29.324 39.2226 31.406 39.2226C33.4919 39.2226 35.4568 38.4101 36.9294 36.9335C39.9763 33.8866 39.9763 28.9296 36.9294 25.8825C33.9802 22.9294 28.8358 22.9294 25.8826 25.8825ZM34.7185 34.7184C32.9568 36.4918 29.863 36.4918 28.0896 34.7184C26.2615 32.8903 26.2615 29.9137 28.0896 28.0856C28.9763 27.2067 30.1521 26.7184 31.4021 26.7184C32.656 26.7184 33.8318 27.2067 34.7185 28.0895C36.5466 29.9176 36.5466 32.8903 34.7185 34.7184Z" fill="white"/>
</svg>
