<svg width="100" height="100" viewBox="0 0 100 100" fill="none" xmlns="http://www.w3.org/2000/svg">
<g clip-path="url(#clip0_1_11)">
<path fill-rule="evenodd" clip-rule="evenodd" d="M79.3879 23.4608C80.8565 23.6602 80.8271 24.3884 81.3311 25.0343C86.6688 31.9708 90.1315 40.1354 90.1831 49.4995C90.2375 59.4858 86.7973 69.5469 80.1811 77.0481C75.6991 82.1311 69.9014 85.9571 63.5682 88.4267C63.5682 88.4267 62.6264 88.7934 61.9577 88.4679C60.7887 87.897 60.7223 85.9343 62.0942 85.3153C73.6024 80.9068 82.8148 71.1087 85.7023 58.9972C87.1051 53.1165 87.2874 46.8524 85.8007 41.0114C84.4108 35.5469 81.4324 30.6128 77.9309 26.2541C77.9309 26.2541 77.6023 25.7894 77.5595 25.3422C77.4617 24.3451 78.3046 23.4405 79.3879 23.4608Z" fill="white"/>
<path fill-rule="evenodd" clip-rule="evenodd" d="M80.2597 50.9064C81.2188 51.0012 81.9194 51.8151 81.8674 52.7916C81.7242 54.2518 81.6761 54.3817 81.5433 55.0836C80.3119 61.6129 77.0223 67.7222 72.4264 72.2503C66.7938 77.7574 60.5591 82.4127 53.2799 85.8649C51.6967 86.6312 50.2139 87.6191 49.0344 88.9328C49.0344 88.9328 47.6578 89.9163 46.6812 89.1047C45.2461 87.9104 47.1932 85.5876 49.2581 84.1899C52.0885 82.2747 55.4362 81.2249 58.3878 79.3808C67.6105 73.6208 76.3946 65.5592 78.2908 53.8701C78.7958 50.7597 80.0523 50.9039 80.2597 50.9064Z" fill="white"/>
<path fill-rule="evenodd" clip-rule="evenodd" d="M51.696 17.8457C65.3379 18.1207 78.03 28.3432 81.0474 42.151C81.0474 42.151 81.1712 43.0394 80.6931 43.619C79.7126 44.8071 78.0714 44.2373 77.4388 41.7171C74.2771 29.4646 61.8601 20.2455 48.8671 21.3949C48.8671 21.3949 48.2926 21.4032 47.9124 21.198C46.6313 20.5089 46.8187 18.1995 48.5689 17.9715C49.9603 17.8491 50.0394 17.8671 50.6614 17.8505C51.0062 17.846 51.35 17.843 51.696 17.8457Z" fill="white"/>
<path fill-rule="evenodd" clip-rule="evenodd" d="M12.2291 54.2598C14.4847 54.4509 14.1907 58.2435 15.2806 61.4813C17.7077 68.6922 22.1277 75.0239 28.1814 79.7716C28.1814 79.7716 29.0395 80.6963 28.7697 81.6135C28.4696 82.6351 27.1617 83.1573 26.1879 82.5566C25.9758 82.4029 25.9789 82.3991 25.7656 82.2317C17.6808 75.795 12.2597 66.3022 10.4707 56.2808C10.4707 56.2808 10.266 54.2413 12.2291 54.2598Z" fill="white"/>
<path fill-rule="evenodd" clip-rule="evenodd" d="M51.4107 10.1703C59.4225 10.3261 67.4044 12.8858 73.6962 17.872C73.6962 17.872 75.1428 19.1395 74.4828 20.3383C73.2367 22.6027 69.2117 18.482 65.2048 16.6383C51.8322 10.4836 34.6439 14.0775 24.9546 23.7197C18.5851 30.057 14.7092 38.6583 13.6648 47.7276C13.6648 47.7276 13.5578 48.7328 12.965 49.1823C11.7519 50.1035 10.0473 49.0921 10.3761 46.4889C11.8994 34.9325 17.8516 23.8512 27.301 17.2217C34.0225 12.5067 42.3275 10.2581 50.5646 10.1674C50.9885 10.1663 50.9874 10.1676 51.4107 10.1703Z" fill="white"/>
<path fill-rule="evenodd" clip-rule="evenodd" d="M40.6847 19.8152C41.2784 19.9177 41.4253 20.048 41.6699 20.284C42.6462 21.2312 42.0591 22.776 40.2752 23.4071C29.5742 27.3228 22.2948 38.4626 22.4149 49.9825C22.4813 56.4261 25.2451 62.4534 28.6738 67.9858C29.6894 69.6462 30.5246 72.0633 30.6215 72.841C30.6448 73.0262 30.6368 73.214 30.5989 73.3972C30.2877 74.939 27.8057 75.2899 27.2675 73.4482C26.5041 70.2011 24.2193 67.6141 22.6666 64.5837C17.693 54.8864 17.7185 42.6438 23.6231 33.2003C27.2764 27.3558 32.6013 22.5192 39.1261 20.1711C39.6784 19.9722 39.9258 19.7669 40.6847 19.8152Z" fill="white"/>
<path fill-rule="evenodd" clip-rule="evenodd" d="M50.6062 25.7723C59.5612 25.9097 68.2113 31.4988 72.0791 39.5417C75.9475 47.5893 75.013 57.7607 69.438 64.6226C63.9051 71.4324 54.3409 74.0256 49.1368 80.7347C49.1368 80.7347 48.7015 81.2124 48.2276 81.3385C46.7236 81.7369 45.2909 80.0326 46.8987 78.049C52.5617 71.2113 62.0872 68.8578 67.5773 61.4399C74.7641 51.7294 69.9725 35.1976 57.1146 30.4337C50.008 27.8003 41.751 29.8908 35.9707 35.3955C35.9707 35.3955 35.2052 35.9965 34.4299 35.8243C33.0422 35.5147 32.5446 33.8788 34.2171 32.3448C38.7349 28.2777 44.5496 25.7468 50.6062 25.7723Z" fill="white"/>
<path fill-rule="evenodd" clip-rule="evenodd" d="M50.6307 33.4845C59.0189 33.6005 67.4817 40.3638 67.4996 49.5022C67.5038 51.6226 64.1245 52.3294 64.0836 49.3899C63.7936 41.5132 55.0179 34.2046 45.6798 37.7678C38.4153 40.537 35.0775 50.1978 38.1597 58.0583C39.9388 62.5939 38.3803 67.5226 36.9964 72.2227C36.9964 72.2227 36.5198 73.3286 35.5577 73.4423C34.4422 73.5728 33.4315 72.4348 33.7239 71.2467C34.8549 67.4039 36.5826 63.2589 35.0846 59.5701C34.8227 58.924 34.8402 58.946 34.6974 58.5416C32.0999 50.9395 33.9741 41.7547 40.0766 37.0119C42.9395 34.786 46.5171 33.5701 50.1511 33.4872C50.3917 33.4841 50.39 33.4842 50.6307 33.4845Z" fill="white"/>
<path fill-rule="evenodd" clip-rule="evenodd" d="M49.9457 48.4383C51.7654 48.5569 51.8717 51.419 51.8802 53.8563C51.894 57.8585 50.328 61.366 46.9878 64.8755C46.0103 65.9267 45.2116 67.1254 44.5555 68.4031C44.5555 68.4031 43.82 69.4196 42.8685 69.3233C41.6438 69.2003 40.9936 67.8277 41.7437 66.4002C43.562 63.028 47.4916 60.8703 48.1809 57.3988C48.6327 55.1248 48.5648 52.742 48.2048 50.4215C48.2048 50.4215 48.116 48.434 49.9457 48.4383Z" fill="white"/>
<path fill-rule="evenodd" clip-rule="evenodd" d="M50.9898 40.5387C56.3048 40.6689 61.1761 45.6987 60.6395 51.0144C60.3212 54.1682 58.4638 57.0198 56.3853 59.5132C56.3853 59.5132 55.0634 60.5352 54.062 59.7886C51.5982 57.9497 57.9665 53.9544 57.2077 49.3092C56.827 46.9805 54.9837 45.0092 52.8471 44.291C50.055 43.3534 46.5548 44.5292 45.2763 47.0814C44.3886 48.8552 44.2727 51.0091 44.9042 52.9057C46.3505 57.2473 43.982 56.6546 43.0485 56.2057C39.8488 54.6616 40.253 46.3033 44.3226 42.8867C45.1517 42.1905 46.098 41.6392 47.105 41.2473C48.335 40.7688 49.6477 40.538 50.9898 40.5387Z" fill="white"/>
<path fill-rule="evenodd" clip-rule="evenodd" d="M30.5182 38.2958C31.8453 38.4398 32.4023 39.8542 31.5901 41.3735C30.145 44.1842 29.735 47.4315 29.821 50.5724C29.9115 53.9545 30.7535 57.3797 32.6595 60.1573C32.6595 60.1573 33.1778 61.1997 32.7425 61.9768C32.132 63.0697 30.5009 63.0852 29.6272 61.7814C25.2987 55.1477 24.9934 45.9443 28.9188 39.1456C28.9188 39.1456 29.3533 38.2515 30.5182 38.2958Z" fill="white"/>
<path fill-rule="evenodd" clip-rule="evenodd" d="M64.4708 55.9844C65.6663 56.151 66.3562 57.4964 65.7694 58.5773C65.1679 59.5877 65.0837 59.6646 64.7409 60.1241C60.4741 65.8609 53.0783 68.6404 48.2242 72.3449C43.8938 75.6483 40.2182 79.7696 37.9 84.8605C37.9 84.8605 37.6316 85.3536 37.2799 85.5858C35.8987 86.4892 33.981 85.1203 35.2269 82.5081C38.9521 74.8738 45.7842 69.05 53.2231 65.2325C57.058 63.224 60.6442 60.5007 62.8419 56.8108C62.8419 56.8108 63.1122 55.9065 64.4708 55.9844Z" fill="white"/>
</g>
<defs>
<clipPath id="clip0_1_11">
<rect width="100" height="100" fill="white"/>
</clipPath>
</defs>
</svg>
