<svg width="30" height="30" viewBox="0 0 30 30" fill="none" xmlns="http://www.w3.org/2000/svg">
<g clip-path="url(#clip0_8_581)">
<circle cx="15" cy="15" r="15" fill="black"/>
<path fill-rule="evenodd" clip-rule="evenodd" d="M16.8473 15.2956C16.8473 16.3158 16.0202 17.1429 15 17.1429C13.9798 17.1429 13.1527 16.3158 13.1527 15.2956C13.1527 14.2754 13.9798 13.4483 15 13.4483C16.0202 13.4483 16.8473 14.2754 16.8473 15.2956ZM10.936 15.2956C10.936 16.3159 10.1089 17.1429 9.08868 17.1429C8.06845 17.1429 7.24139 16.3159 7.24139 15.2956C7.24139 14.2754 8.06845 13.4483 9.08868 13.4483C10.1089 13.4483 10.936 14.2754 10.936 15.2956ZM20.9113 17.1429C21.9316 17.1429 22.7586 16.3158 22.7586 15.2956C22.7586 14.2754 21.9316 13.4483 20.9113 13.4483C19.8911 13.4483 19.0641 14.2754 19.0641 15.2956C19.0641 16.3158 19.8911 17.1429 20.9113 17.1429Z" fill="white"/>
</g>
<defs>
<clipPath id="clip0_8_581">
<rect width="30" height="30" fill="white"/>
</clipPath>
</defs>
</svg>
