<svg width="30" height="30" viewBox="0 0 30 30" fill="none" xmlns="http://www.w3.org/2000/svg">
<g clip-path="url(#clip0_8_582)">
<circle cx="15" cy="15" r="15" fill="#335CF4"/>
<path d="M13.5034 18.1893V18.0918C13.5147 17.057 13.6281 17.2336 13.8435 16.6214C14.059 16.0092 14.3651 15.5135 14.7619 15.1343C15.1587 14.7551 15.6349 14.4057 16.1905 14.086C16.5249 13.891 16.8254 13.6608 17.0918 13.3953C17.3583 13.1244 17.568 12.8129 17.7211 12.4608C17.8798 12.1087 17.9592 11.7186 17.9592 11.2906C17.9592 10.7597 17.8288 10.2992 17.568 9.90918C17.3073 9.51912 16.9586 9.21845 16.5221 9.00717C16.0856 8.79589 15.6009 8.69025 15.068 8.69025C14.6032 8.69025 14.1553 8.78235 13.7245 8.96654C13.2937 9.15073 12.9337 9.44057 12.6446 9.83604C12.3554 10.2315 12.1882 10.7489 12.1429 11.3881H10C10.0454 10.4672 10.2948 9.67894 10.7483 9.02342C11.2075 8.36791 11.8112 7.86679 12.5595 7.52008C13.3135 7.17336 14.1497 7 15.068 7C16.0658 7 16.9331 7.18961 17.6701 7.56883C18.4127 7.94806 18.9853 8.46813 19.3878 9.12906C19.7959 9.78999 20 10.543 20 11.3881C20 11.9841 19.9036 12.5231 19.7109 13.0053C19.5238 13.4874 19.2517 13.9181 18.8946 14.2973C18.5431 14.6765 18.1179 15.0124 17.619 15.305C17.1202 15.6029 16.7205 15.9171 16.4201 16.2476C16.1196 16.5727 15.9014 16.96 15.7653 17.4097C15.6293 17.8593 15.5556 17.42 15.5442 18.0918V18.1893H13.5034ZM14.5918 23C14.1723 23 13.8124 22.8564 13.5119 22.5693C13.2115 22.2822 13.0612 21.9382 13.0612 21.5373C13.0612 21.1364 13.2115 20.7924 13.5119 20.5053C13.8124 20.2181 14.1723 20.0746 14.5918 20.0746C15.0113 20.0746 15.3713 20.2181 15.6718 20.5053C15.9722 20.7924 16.1224 21.1364 16.1224 21.5373C16.1224 21.8027 16.0516 22.0465 15.9099 22.2686C15.7738 22.4908 15.5896 22.6695 15.3571 22.805C15.1304 22.935 14.8753 23 14.5918 23Z" fill="white"/>
</g>
<defs>
<clipPath id="clip0_8_582">
<rect width="30" height="30" fill="white"/>
</clipPath>
</defs>
</svg>
