<svg width="311" height="274" viewBox="0 0 311 274" fill="none" xmlns="http://www.w3.org/2000/svg">
<g opacity="0.5">
<path d="M124.35 198.682L140.037 226.217C145.322 235.494 139.498 247.165 128.909 248.521L125.158 249.001C114.568 250.357 105.992 240.529 108.769 230.221L117.012 199.622C117.942 196.173 122.582 195.578 124.35 198.682Z" fill="#55A4F7" stroke="url(#paint0_linear_6_789)" stroke-width="10" stroke-linecap="round" stroke-linejoin="round"/>
<path d="M130.518 232.726L123.724 221.341L120.017 234.07" stroke="url(#paint1_linear_6_789)" stroke-width="10" stroke-linecap="round"/>
</g>
<g opacity="0.5">
<path d="M194.842 196.699L176.588 225.343C170.557 234.805 176.67 247.296 187.842 248.34L199.244 249.405C210.416 250.448 218.736 239.306 214.563 228.89L201.929 197.361C200.717 194.337 196.593 193.952 194.842 196.699Z" fill="#55A4F7" stroke="url(#paint2_linear_6_789)" stroke-width="10" stroke-linecap="round" stroke-linejoin="round"/>
<path d="M188.16 232.839L195.863 221.35L201.305 234.067" stroke="url(#paint3_linear_6_789)" stroke-width="10" stroke-linecap="round"/>
</g>
<path d="M93.0008 203.53L111.854 232.809C117.75 241.964 112.232 254.153 101.463 255.765L92.9898 257.033C82.2204 258.645 73.3763 248.605 76.3329 238.125L85.788 204.61C86.7236 201.294 91.1352 200.633 93.0008 203.53Z" fill="#55A4F7" stroke="url(#paint4_linear_6_789)" stroke-width="10" stroke-linecap="round" stroke-linejoin="round"/>
<path d="M101.012 239.667L93.2238 228.125L89.1562 241.441" stroke="url(#paint5_linear_6_789)" stroke-width="10" stroke-linecap="round"/>
<path d="M226.35 209.953L210.978 232.163C204.592 241.389 210.226 254.103 221.35 255.571L226.405 256.237C237.529 257.705 246.267 246.887 242.492 236.32L233.406 210.884C232.31 207.816 228.203 207.275 226.35 209.953Z" fill="#55A4F7" stroke="url(#paint6_linear_6_789)" stroke-width="10" stroke-linecap="round" stroke-linejoin="round"/>
<path d="M219.608 241.379L226.889 231.365L231.324 242.925" stroke="url(#paint7_linear_6_789)" stroke-width="10" stroke-linecap="round"/>
<path d="M86.2881 186.753C80.0182 176.984 75.4855 165.87 73.205 153.761C63.703 103.309 96.8993 54.7071 147.351 45.205C197.803 35.7029 246.405 68.8993 255.907 119.351C260.779 145.217 254.427 170.597 240.281 190.471" stroke="white" stroke-width="16" stroke-linecap="round"/>
<mask id="mask0_6_789" style="mask-type:alpha" maskUnits="userSpaceOnUse" x="119" y="98" width="99" height="74">
<path d="M216.566 138.207C221.567 164.758 203.561 157.511 177.01 162.512C150.459 167.512 125.417 182.866 120.417 156.315C115.416 129.764 132.886 104.187 159.437 99.1864C185.988 94.1858 211.565 111.656 216.566 138.207Z" fill="black"/>
</mask>
<g mask="url(#mask0_6_789)">
<path d="M216.566 138.207C221.567 164.758 203.561 157.511 177.01 162.512C150.459 167.512 125.417 182.866 120.417 156.315C115.416 129.764 132.886 104.187 159.437 99.1864C185.988 94.1858 211.565 111.656 216.566 138.207Z" fill="white"/>
<path d="M193.932 157.492C197.254 175.128 185.294 170.315 167.658 173.636C150.022 176.958 133.388 187.157 130.066 169.52C126.745 151.884 138.349 134.895 155.985 131.573C173.621 128.252 190.611 139.856 193.932 157.492Z" fill="#B43535"/>
</g>
<path d="M208.316 90.7529L197.914 83.6486" stroke="white" stroke-width="16" stroke-linecap="round"/>
<path d="M110.649 108.401L117.753 98" stroke="white" stroke-width="16" stroke-linecap="round"/>
<path d="M166.059 188.932L186.793 229.323C193.283 241.967 184.102 257 169.89 257H155.11C140.898 257 131.717 241.967 138.207 229.323L158.941 188.932C160.429 186.034 164.571 186.034 166.059 188.932Z" fill="#55A4F7" stroke="url(#paint8_linear_6_789)" stroke-width="10" stroke-linecap="round" stroke-linejoin="round"/>
<path d="M171.209 237.344L162.817 221.891L154.426 237.344" stroke="url(#paint9_linear_6_789)" stroke-width="10" stroke-linecap="round"/>
<path d="M67.1334 120.866C25.6889 126.438 16.962 110.341 17.7791 101.596" stroke="white" stroke-width="16" stroke-linecap="round"/>
<path d="M249.978 84.8469C290.232 69.0116 290.02 50.1441 284.883 42.6897" stroke="white" stroke-width="16" stroke-linecap="round"/>
<defs>
<linearGradient id="paint0_linear_6_789" x1="118.805" y1="192.881" x2="129.482" y2="276.269" gradientUnits="userSpaceOnUse">
<stop offset="0.52" stop-color="#075FE4"/>
<stop offset="1" stop-color="#55A4F7"/>
</linearGradient>
<linearGradient id="paint1_linear_6_789" x1="123.724" y1="221.341" x2="126.233" y2="240.933" gradientUnits="userSpaceOnUse">
<stop stop-color="#B8DFFE"/>
<stop offset="1" stop-color="#B8DFFE" stop-opacity="0"/>
</linearGradient>
<linearGradient id="paint2_linear_6_789" x1="200.117" y1="192.768" x2="192.298" y2="276.472" gradientUnits="userSpaceOnUse">
<stop offset="0.52" stop-color="#075FE4"/>
<stop offset="1" stop-color="#55A4F7"/>
</linearGradient>
<linearGradient id="paint3_linear_6_789" x1="195.863" y1="221.35" x2="194.026" y2="241.016" gradientUnits="userSpaceOnUse">
<stop stop-color="#B8DFFE"/>
<stop offset="1" stop-color="#B8DFFE" stop-opacity="0"/>
</linearGradient>
<linearGradient id="paint4_linear_6_789" x1="87.392" y1="198.833" x2="100.258" y2="284.794" gradientUnits="userSpaceOnUse">
<stop offset="0.52" stop-color="#075FE4"/>
<stop offset="1" stop-color="#55A4F7"/>
</linearGradient>
<linearGradient id="paint5_linear_6_789" x1="93.2238" y1="228.125" x2="96.2466" y2="248.321" gradientUnits="userSpaceOnUse">
<stop stop-color="#B8DFFE"/>
<stop offset="1" stop-color="#B8DFFE" stop-opacity="0"/>
</linearGradient>
<linearGradient id="paint6_linear_6_789" x1="231.666" y1="205.944" x2="221.824" y2="280.549" gradientUnits="userSpaceOnUse">
<stop offset="0.52" stop-color="#075FE4"/>
<stop offset="1" stop-color="#55A4F7"/>
</linearGradient>
<linearGradient id="paint7_linear_6_789" x1="226.889" y1="231.365" x2="224.577" y2="248.893" gradientUnits="userSpaceOnUse">
<stop stop-color="#B8DFFE"/>
<stop offset="1" stop-color="#B8DFFE" stop-opacity="0"/>
</linearGradient>
<linearGradient id="paint8_linear_6_789" x1="160.813" y1="185.213" x2="160.813" y2="292.08" gradientUnits="userSpaceOnUse">
<stop offset="0.52" stop-color="#075FE4"/>
<stop offset="1" stop-color="#55A4F7"/>
</linearGradient>
<linearGradient id="paint9_linear_6_789" x1="162.817" y1="221.891" x2="162.817" y2="247" gradientUnits="userSpaceOnUse">
<stop stop-color="#B8DFFE"/>
<stop offset="1" stop-color="#B8DFFE" stop-opacity="0"/>
</linearGradient>
</defs>
</svg>
