<svg width="311" height="274" viewBox="0 0 311 274" fill="none" xmlns="http://www.w3.org/2000/svg">
<g opacity="0.9">
<path d="M126.845 196.932L142.357 227.15C147.481 237.132 140.233 249 129.012 249H117.561C106.341 249 99.0923 237.132 104.216 227.15L119.728 196.932C121.216 194.034 125.358 194.034 126.845 196.932Z" fill="#55A4F7" stroke="url(#paint0_linear_6_789)" stroke-width="10" stroke-linecap="round" stroke-linejoin="round"/>
<path d="M130.137 233.537L123.536 221.381L116.935 233.537" stroke="url(#paint1_linear_6_789)" stroke-width="10" stroke-linecap="round"/>
</g>
<g opacity="0.9">
<path d="M192.728 196.932L177.216 227.15C172.092 237.132 179.34 249 190.561 249H202.012C213.233 249 220.481 237.132 215.357 227.15L199.845 196.932C198.358 194.034 194.216 194.034 192.728 196.932Z" fill="#55A4F7" stroke="url(#paint2_linear_6_789)" stroke-width="10" stroke-linecap="round" stroke-linejoin="round"/>
<path d="M189.436 233.537L196.037 221.381L202.638 233.537" stroke="url(#paint3_linear_6_789)" stroke-width="10" stroke-linecap="round"/>
</g>
<path d="M95.8452 204.932L111.357 235.15C116.481 245.132 109.233 257 98.0124 257H86.5609C75.3405 257 68.0923 245.132 73.2164 235.15L88.7281 204.932C90.2156 202.034 94.3577 202.034 95.8452 204.932Z" fill="#55A4F7" stroke="url(#paint4_linear_6_789)" stroke-width="10" stroke-linecap="round" stroke-linejoin="round"/>
<path d="M99.1375 241.537L92.5362 229.381L85.9349 241.537" stroke="url(#paint5_linear_6_789)" stroke-width="10" stroke-linecap="round"/>
<path d="M223.728 204.932L208.216 235.15C203.092 245.132 210.34 257 221.561 257H233.012C244.233 257 251.481 245.132 246.357 235.15L230.845 204.932C229.358 202.034 225.216 202.034 223.728 204.932Z" fill="#55A4F7" stroke="url(#paint6_linear_6_789)" stroke-width="10" stroke-linecap="round" stroke-linejoin="round"/>
<path d="M220.436 241.537L227.037 229.381L233.638 241.537" stroke="url(#paint7_linear_6_789)" stroke-width="10" stroke-linecap="round"/>
<path d="M86.2881 186.753C80.0182 176.984 75.4855 165.87 73.205 153.761C63.703 103.309 96.8993 54.7071 147.351 45.205C197.803 35.7029 246.405 68.8993 255.907 119.351C260.779 145.217 254.427 170.597 240.281 190.471" stroke="white" stroke-opacity="0.4" stroke-width="16" stroke-linecap="round"/>
<mask id="mask0_6_789" style="mask-type:alpha" maskUnits="userSpaceOnUse" x="119" y="98" width="99" height="74">
<path d="M216.566 138.207C221.567 164.758 203.561 157.511 177.01 162.512C150.459 167.512 125.417 182.866 120.417 156.315C115.416 129.764 132.886 104.187 159.437 99.1864C185.988 94.1858 211.565 111.656 216.566 138.207Z" fill="black"/>
</mask>
<g mask="url(#mask0_6_789)">
<path d="M216.566 138.207C221.567 164.758 203.561 157.511 177.01 162.512C150.459 167.512 125.417 182.866 120.417 156.315C115.416 129.764 132.886 104.187 159.437 99.1864C185.988 94.1858 211.565 111.656 216.566 138.207Z" fill="white"/>
<path d="M193.932 157.492C197.254 175.128 185.294 170.315 167.658 173.636C150.022 176.958 133.388 187.157 130.066 169.52C126.745 151.884 138.349 134.895 155.985 131.573C173.621 128.252 190.611 139.856 193.932 157.492Z" fill="#B43535"/>
</g>
<path d="M208.316 90.7529L197.914 83.6486" stroke="white" stroke-width="16" stroke-linecap="round"/>
<path d="M110.649 108.401L117.753 98" stroke="white" stroke-width="16" stroke-linecap="round"/>
<path d="M166.059 188.932L189.784 235.15C194.908 245.132 187.659 257 176.439 257H148.561C137.341 257 130.092 245.132 135.216 235.15L158.941 188.932C160.429 186.034 164.571 186.034 166.059 188.932Z" fill="#55A4F7" stroke="url(#paint8_linear_6_789)" stroke-width="10" stroke-linecap="round" stroke-linejoin="round"/>
<path d="M171.209 237.344L162.817 221.891L154.426 237.344" stroke="url(#paint9_linear_6_789)" stroke-width="10" stroke-linecap="round"/>
<path d="M67.1334 120.866C25.6889 126.438 16.962 110.341 17.7791 101.596" stroke="white" stroke-width="16" stroke-linecap="round"/>
<path d="M249.978 84.8469C290.232 69.0116 290.02 50.1441 284.883 42.6897" stroke="white" stroke-width="16" stroke-linecap="round"/>
<defs>
<linearGradient id="paint0_linear_6_789" x1="121.959" y1="192.528" x2="121.959" y2="276.596" gradientUnits="userSpaceOnUse">
<stop offset="0.52" stop-color="#075FE4"/>
<stop offset="1" stop-color="#55A4F7"/>
</linearGradient>
<linearGradient id="paint1_linear_6_789" x1="123.536" y1="221.381" x2="123.536" y2="241.133" gradientUnits="userSpaceOnUse">
<stop stop-color="#B8DFFE"/>
<stop offset="1" stop-color="#B8DFFE" stop-opacity="0"/>
</linearGradient>
<linearGradient id="paint2_linear_6_789" x1="197.614" y1="192.528" x2="197.614" y2="276.596" gradientUnits="userSpaceOnUse">
<stop offset="0.52" stop-color="#075FE4"/>
<stop offset="1" stop-color="#55A4F7"/>
</linearGradient>
<linearGradient id="paint3_linear_6_789" x1="196.037" y1="221.381" x2="196.037" y2="241.133" gradientUnits="userSpaceOnUse">
<stop stop-color="#B8DFFE"/>
<stop offset="1" stop-color="#B8DFFE" stop-opacity="0"/>
</linearGradient>
<linearGradient id="paint4_linear_6_789" x1="90.9594" y1="200.528" x2="90.9594" y2="284.596" gradientUnits="userSpaceOnUse">
<stop offset="0.52" stop-color="#075FE4"/>
<stop offset="1" stop-color="#55A4F7"/>
</linearGradient>
<linearGradient id="paint5_linear_6_789" x1="92.5362" y1="229.381" x2="92.5362" y2="249.133" gradientUnits="userSpaceOnUse">
<stop stop-color="#B8DFFE"/>
<stop offset="1" stop-color="#B8DFFE" stop-opacity="0"/>
</linearGradient>
<linearGradient id="paint6_linear_6_789" x1="228.614" y1="200.528" x2="228.614" y2="284.596" gradientUnits="userSpaceOnUse">
<stop offset="0.52" stop-color="#075FE4"/>
<stop offset="1" stop-color="#55A4F7"/>
</linearGradient>
<linearGradient id="paint7_linear_6_789" x1="227.037" y1="229.381" x2="227.037" y2="249.133" gradientUnits="userSpaceOnUse">
<stop stop-color="#B8DFFE"/>
<stop offset="1" stop-color="#B8DFFE" stop-opacity="0"/>
</linearGradient>
<linearGradient id="paint8_linear_6_789" x1="160.813" y1="185.213" x2="160.813" y2="292.08" gradientUnits="userSpaceOnUse">
<stop offset="0.52" stop-color="#075FE4"/>
<stop offset="1" stop-color="#55A4F7"/>
</linearGradient>
<linearGradient id="paint9_linear_6_789" x1="162.817" y1="221.891" x2="162.817" y2="247" gradientUnits="userSpaceOnUse">
<stop stop-color="#B8DFFE"/>
<stop offset="1" stop-color="#B8DFFE" stop-opacity="0"/>
</linearGradient>
</defs>
</svg>
