<svg width="311" height="274" viewBox="0 0 311 274" fill="none" xmlns="http://www.w3.org/2000/svg">
<path d="M86.2881 186.753C80.0182 176.984 75.4855 165.87 73.205 153.761C63.703 103.309 96.8993 54.7071 147.351 45.2051C197.803 35.703 246.405 68.8994 255.907 119.351C260.779 145.217 254.427 170.598 240.281 190.471" stroke="black" stroke-opacity="0.4" stroke-width="16" stroke-linecap="round"/>
<mask id="mask0_6_759" style="mask-type:alpha" maskUnits="userSpaceOnUse" x="119" y="98" width="99" height="74">
<path d="M216.566 138.207C221.567 164.758 203.561 157.511 177.01 162.512C150.459 167.512 125.417 182.866 120.417 156.315C115.416 129.764 132.886 104.187 159.437 99.1864C185.988 94.1858 211.565 111.656 216.566 138.207Z" fill="black"/>
</mask>
<g mask="url(#mask0_6_759)">
<path d="M216.566 138.207C221.567 164.758 203.561 157.511 177.01 162.512C150.459 167.512 125.417 182.866 120.417 156.315C115.416 129.764 132.886 104.187 159.437 99.1864C185.988 94.1858 211.565 111.656 216.566 138.207Z" fill="black"/>
<path d="M193.932 157.492C197.254 175.128 185.294 170.315 167.658 173.636C150.022 176.958 133.388 187.157 130.066 169.521C126.745 151.885 138.349 134.895 155.985 131.573C173.621 128.252 190.611 139.856 193.932 157.492Z" fill="#B43535"/>
</g>
<path d="M208.316 90.7529L197.914 83.6485" stroke="black" stroke-width="16" stroke-linecap="round"/>
<path d="M110.649 108.401L117.753 98" stroke="black" stroke-width="16" stroke-linecap="round"/>
<path d="M191.129 221.444L210.623 185L237.46 236.932C240.899 243.588 236.068 251.523 228.576 251.523H95.4263C87.8262 251.523 83.004 243.379 86.6578 236.715L115.011 185L134.505 221.444C136.389 224.966 141.439 224.966 143.323 221.444L162.817 185L182.311 221.444C184.195 224.966 189.245 224.966 191.129 221.444Z" fill="#55A4F7" stroke="url(#paint0_linear_6_759)" stroke-width="10" stroke-linecap="round" stroke-linejoin="round"/>
<path d="M123.149 239.344L114.757 223.891L106.366 239.344" stroke="#B8DFFE" stroke-width="10" stroke-linecap="round"/>
<path d="M171.209 239.344L162.817 223.891L154.426 239.344" stroke="#B8DFFE" stroke-width="10" stroke-linecap="round"/>
<path d="M218.506 239.344L210.114 223.891L201.723 239.344" stroke="#B8DFFE" stroke-width="10" stroke-linecap="round"/>
<path d="M67.1334 120.866C25.6889 126.438 16.962 110.341 17.7791 101.596" stroke="black" stroke-width="16" stroke-linecap="round"/>
<path d="M249.978 84.8469C290.232 69.0116 290.02 50.1441 284.883 42.6897" stroke="black" stroke-width="16" stroke-linecap="round"/>
<defs>
<linearGradient id="paint0_linear_6_759" x1="161.77" y1="185" x2="161.77" y2="251.523" gradientUnits="userSpaceOnUse">
<stop offset="0.52" stop-color="#075FE4"/>
<stop offset="1" stop-color="#55A4F7"/>
</linearGradient>
</defs>
</svg>
