<svg width="100" height="100" viewBox="0 0 100 100" fill="none" xmlns="http://www.w3.org/2000/svg">
<path d="M65.288 14H34.712C31.52 14 29 16.5116 29 19.693V80.307C29 83.4047 31.52 86 34.712 86H65.288C68.396 86 71 83.4884 71 80.307V19.693C71 16.5116 68.48 14 65.288 14ZM67.64 80.307C67.64 81.5628 66.548 82.6512 65.288 82.6512H34.712C33.452 82.6512 32.36 81.5628 32.36 80.307V19.693C32.36 18.4372 33.452 17.3488 34.712 17.3488C46.9925 17.3488 55.1573 17.3488 65.288 17.3488C66.548 17.3488 67.64 18.4372 67.64 19.693V80.307Z" fill="black"/>
<path d="M57.7727 46.5682V51.4666V58.6321H55.951H54.6151V59.8871V64.0568C54.6151 64.413 54.3722 64.6964 54.024 64.7045H54.0159C54.0078 64.7045 53.9997 64.7045 53.9916 64.7045C53.8621 64.7045 53.7406 64.6559 53.6435 64.575L53.6354 64.5669L53.603 64.5588C53.4411 64.4292 53.3277 64.2349 53.3277 64.0568V59.8871V58.6321H52.0727H48.1054H46.7614V59.8871V64.0568C46.7614 64.413 46.4699 64.7045 46.1136 64.7045C45.7574 64.7045 45.4659 64.413 45.4659 64.0568V59.8871V58.6321H44.2109H42.2273V51.4585V46.5682H57.7727ZM59.0682 45.2727H40.9318V51.4585V58.713C40.9318 59.2717 41.3771 59.9275 41.9358 59.9275H44.1705V64.0568C44.1705 65.1336 45.0368 66 46.1136 66C47.1905 66 48.0568 65.1336 48.0568 64.0568V59.9275H52.0242V64.0568C52.0242 64.664 52.3399 65.2065 52.7771 65.5628C53.0929 65.838 53.5301 66 53.9916 66C53.9997 66 54.0159 66 54.024 66C54.0321 66 53.9997 66 54.0078 66C55.0847 66 55.9186 65.1336 55.9186 64.0568V59.9275H58.2342C58.801 59.9275 59.0763 59.2717 59.0763 58.7211V51.4666V45.2727H59.0682Z" fill="black"/>
<path d="M62.3068 45.2727C62.6631 45.2727 62.9546 45.5642 62.9546 45.9205V53.6932C62.9546 54.0495 62.6631 54.3409 62.3068 54.3409C61.9506 54.3409 61.6591 54.0495 61.6591 53.6932V45.9205C61.6591 45.5642 61.9506 45.2727 62.3068 45.2727ZM62.3068 43.9773C61.23 43.9773 60.3636 44.8436 60.3636 45.9205V53.6932C60.3636 54.7701 61.23 55.6364 62.3068 55.6364C63.3837 55.6364 64.25 54.7701 64.25 53.6932V45.9205C64.25 44.8436 63.3837 43.9773 62.3068 43.9773Z" fill="black"/>
<path d="M37.6932 45.2727C38.0494 45.2727 38.3409 45.5642 38.3409 45.9205V53.6932C38.3409 54.0495 38.0494 54.3409 37.6932 54.3409C37.3369 54.3409 37.0455 54.0495 37.0455 53.6932V45.9205C37.0455 45.5642 37.3369 45.2727 37.6932 45.2727ZM37.6932 43.9773C36.6163 43.9773 35.75 44.8436 35.75 45.9205V53.6932C35.75 54.7701 36.6163 55.6364 37.6932 55.6364C38.77 55.6364 39.6364 54.7701 39.6364 53.6932V45.9205C39.6364 44.8436 38.77 43.9773 37.6932 43.9773Z" fill="black"/>
<path d="M49.919 37.3624H49.9919C51.1416 37.3624 52.2023 37.5162 53.1334 37.8158L53.943 38.172C56.2667 39.1922 57.1736 41.2002 57.5379 42.6818H42.454C42.8102 41.1759 43.717 39.1517 46.0246 38.1478L46.8585 37.7834C47.7734 37.5081 48.8017 37.3624 49.919 37.3624ZM44.2838 34.9091C44.2433 34.9091 44.1866 34.9253 44.1381 34.9739C44.049 35.0387 44.0004 35.1196 44.0328 35.1763L45.5145 36.9657C41.6119 38.6578 41.029 42.7709 40.948 43.9854H59.052C58.9629 42.7709 58.3881 38.7145 54.4693 36.9899L55.9672 35.1925C55.9996 35.152 55.951 35.0549 55.8619 34.982C55.8052 34.9415 55.7405 34.9172 55.7 34.9172C55.6757 34.9172 55.6595 34.9253 55.6433 34.9415L54.0888 36.7794C52.9876 36.3422 51.6436 36.0669 49.9919 36.0669C49.9676 36.0669 49.9433 36.0669 49.9109 36.0669C48.2916 36.0669 46.9638 36.3341 45.8788 36.7551L44.3405 34.9334C44.3405 34.9172 44.3162 34.9091 44.2838 34.9091Z" fill="black"/>
<path d="M46.0003 40.9735C45.4011 40.9735 44.9072 40.4877 44.9072 39.8966C44.9072 39.3056 45.393 38.8198 46.0003 38.8198C46.5994 38.8198 47.0933 39.3056 47.0933 39.8966C47.0933 40.4877 46.6075 40.9735 46.0003 40.9735Z" fill="black"/>
<path d="M53.9674 40.9735C53.3682 40.9735 52.8743 40.4877 52.8743 39.8966C52.8743 39.3056 53.3601 38.8198 53.9674 38.8198C54.5665 38.8198 55.0604 39.3056 55.0604 39.8966C55.0604 40.4877 54.5665 40.9735 53.9674 40.9735Z" fill="black"/>
</svg>
