<svg width="100" height="100" viewBox="0 0 100 100" fill="none" xmlns="http://www.w3.org/2000/svg">
<path d="M65.288 14H34.712C31.52 14 29 16.5116 29 19.693V80.307C29 83.4046 31.52 86 34.712 86H65.288C68.396 86 71 83.4884 71 80.307V19.693C71 16.5116 68.48 14 65.288 14ZM67.64 80.307C67.64 81.5628 66.548 82.6512 65.288 82.6512H34.712C33.452 82.6512 32.36 81.5628 32.36 80.307V19.693C32.36 18.4372 33.452 17.3488 34.712 17.3488H40.76C40.76 19.1907 42.272 20.6977 44.12 20.6977H55.88C57.728 20.6977 59.24 19.1907 59.24 17.3488H65.288C66.548 17.3488 67.64 18.4372 67.64 19.693V80.307Z" fill="black"/>
<path d="M45.6338 65.5028C44.5451 65.548 43.4776 65.1922 42.6338 64.5028C38.0138 60.6528 36.5138 53.9028 36.4538 53.6228C36.3938 53.3428 34.4938 46.8428 38.9438 41.7528C42.5738 37.5928 47.3638 39.1128 49.2538 39.9628C49.9291 40.2843 50.6903 40.379 51.4238 40.2328C51.6488 40.1868 51.8671 40.1129 52.0738 40.0128C52.8819 39.5866 53.7476 39.28 54.6438 39.1028C56.2611 38.7592 57.9433 38.8897 59.4883 39.4786C61.0333 40.0675 62.3755 41.0898 63.3538 42.4228C63.455 42.5663 63.5243 42.7297 63.5571 42.9022C63.5899 43.0747 63.5853 43.2522 63.5438 43.4228C63.4623 43.7549 63.2542 44.0421 62.9638 44.2228C62.1954 44.6475 61.5379 45.2473 61.0445 45.9735C60.5511 46.6997 60.2357 47.532 60.1238 48.4028C59.8938 53.2528 63.4938 54.6728 63.6438 54.7328C63.944 54.8459 64.1897 55.0692 64.3309 55.3572C64.4722 55.6452 64.4982 55.9762 64.4038 56.2828C63.4252 59.4234 61.6672 62.2651 59.2938 64.5428C58.3977 65.1521 57.3497 65.5 56.2671 65.5477C55.1845 65.5954 54.11 65.3409 53.1638 64.8128C52.4973 64.4874 51.7691 64.3076 51.0278 64.2852C50.2864 64.2628 49.5488 64.3983 48.8638 64.6828C47.8688 65.2121 46.7608 65.4935 45.6338 65.5028ZM44.9638 41.5028C44.1742 41.4935 43.3925 41.6612 42.6761 41.9934C41.9597 42.3256 41.3268 42.814 40.8238 43.4228C37.2938 47.4228 38.8238 52.9828 38.8738 53.0428C38.9238 53.1028 40.2838 59.3428 44.2738 62.5828L44.3938 62.6928C44.3938 62.6928 45.4438 63.6228 47.7338 62.4428C48.7578 61.9866 49.869 61.7593 50.9898 61.7765C52.1107 61.7938 53.2143 62.0553 54.2238 62.5428C54.7518 62.8566 55.3529 63.0264 55.9671 63.0352C56.5813 63.044 57.187 62.8914 57.7238 62.5928C59.472 60.8756 60.8354 58.8066 61.7238 56.5228C60.3673 55.644 59.2773 54.4105 58.5722 52.9562C57.867 51.5018 57.5736 49.8821 57.7238 48.2728C57.9221 46.1931 58.936 44.2767 60.5438 42.9428C59.8236 42.3148 58.9666 41.8639 58.0412 41.626C57.1158 41.3882 56.1475 41.3699 55.2138 41.5728C54.5487 41.7098 53.9058 41.9386 53.3038 42.2528C52.9166 42.4487 52.5069 42.5965 52.0838 42.6928C50.8173 42.9662 49.4959 42.8151 48.3238 42.2628C47.2737 41.7594 46.1281 41.4866 44.9638 41.4628V41.5028Z" fill="black"/>
<path d="M51.3139 36.9028C51.1409 36.9051 50.9694 36.8707 50.8108 36.8017C50.6522 36.7328 50.5101 36.6309 50.3939 36.5028C50.1739 36.2601 50.058 35.9407 50.0711 35.6135C50.0842 35.2862 50.2252 34.9771 50.4639 34.7528L54.1339 31.3328C54.2537 31.2211 54.3944 31.1343 54.548 31.0774C54.7015 31.0204 54.8648 30.9945 55.0284 31.001C55.1921 31.0075 55.3528 31.0463 55.5013 31.1153C55.6499 31.1843 55.7833 31.282 55.8939 31.4028C56.1187 31.6464 56.2385 31.9688 56.2273 32.3001C56.216 32.6314 56.0747 32.945 55.8339 33.1728L52.1539 36.5728C51.9252 36.7844 51.6254 36.9022 51.3139 36.9028Z" fill="black"/>
</svg>
