<svg width="100" height="100" viewBox="0 0 100 100" fill="none" xmlns="http://www.w3.org/2000/svg">
<path fill-rule="evenodd" clip-rule="evenodd" d="M50.5032 15C45.7651 15 41.5708 16.0136 38.969 17.5046C36.7275 18.7923 35.5803 20.5082 35.5803 22.2211V31.1485C35.5803 31.2718 35.5896 31.395 35.5989 31.5182C35.5896 31.5798 35.5803 31.6414 35.5803 31.7061V40.6336C35.5803 42.3465 36.7275 44.0655 38.969 45.3501C41.2635 46.6655 44.7984 47.6082 48.8461 47.8146V62.6419H45.5288V61C45.5288 57.3709 42.5566 54.429 38.8974 54.429H25.6314C21.969 54.429 19 57.3741 19 61V70.858C19 74.487 21.9722 77.429 25.6314 77.429H30.6058V80.7161H27.2885C26.3745 80.7161 25.6314 81.4524 25.6314 82.358C25.6314 83.2637 26.3745 84 27.2885 84H37.2372C38.1512 84 38.8942 83.2637 38.8942 82.358C38.8942 81.4524 38.1512 80.7161 37.2372 80.7161H33.9199V77.429H38.8942C42.5566 77.429 45.5256 74.4839 45.5256 70.858V65.929H55.4744V70.858C55.4744 74.487 58.4466 77.429 62.1058 77.429H67.0801V80.7161H63.7628C62.8488 80.7161 62.1058 81.4524 62.1058 82.358C62.1058 83.2637 62.8488 84 63.7628 84H73.7115C74.6255 84 75.3686 83.2637 75.3686 82.358C75.3686 81.4524 74.6256 80.7161 73.7115 80.7161H70.3942V77.429H75.3686C79.031 77.429 82 74.4839 82 70.858V61C82 57.3709 79.0278 54.429 75.3686 54.429H62.1026C58.4402 54.429 55.4712 57.3741 55.4712 61V62.6419H52.1539V47.8146C56.2017 47.6082 59.7366 46.6655 62.031 45.3501C64.2725 44.0624 65.4197 42.3465 65.4197 40.6336V31.7061C65.4197 31.6414 65.4073 31.5798 65.4011 31.5213C65.4135 31.395 65.4197 31.2718 65.4197 31.1485V22.2211C65.4197 20.5082 64.2725 18.7892 62.031 17.5046C59.4288 16.0105 55.2316 15 50.4968 15L50.5032 15ZM50.5032 18.2871C54.551 18.2871 58.1482 19.0726 60.3739 20.3511C60.9739 20.6931 61.4589 21.0627 61.7853 21.4725C61.975 21.7128 62.1087 21.9562 62.1087 22.2242C62.1087 22.4922 61.975 22.7325 61.7853 22.9728C61.4589 23.3825 60.9708 23.7522 60.3739 24.0941C58.1479 25.3726 54.5508 26.1613 50.5032 26.1613C46.4556 26.1613 42.8551 25.3726 40.6293 24.0941C40.0293 23.7522 39.5473 23.3825 39.221 22.9728C39.0313 22.7325 38.8976 22.4922 38.8976 22.2242C38.8976 21.9592 39.0313 21.7128 39.221 21.4725C39.5474 21.0628 40.0324 20.6931 40.6293 20.3511C42.8553 19.0726 46.4555 18.2871 50.5032 18.2871ZM62.109 26.8975V31.1519C62.109 31.4168 61.9753 31.6632 61.7856 31.9035C61.4592 32.3163 60.9711 32.686 60.3742 33.028C58.1481 34.3034 54.5511 35.092 50.5035 35.092C46.4559 35.092 42.8554 34.3065 40.6296 33.028C40.0295 32.686 39.5476 32.3163 39.2212 31.9035C39.0316 31.6632 38.8979 31.4199 38.8979 31.1519V26.9006C38.9197 26.916 38.9445 26.9283 38.9694 26.9437C41.5716 28.4378 45.7687 29.4483 50.5035 29.4483C55.2416 29.4483 59.4359 28.4347 62.0377 26.9437C62.0625 26.9283 62.0841 26.9129 62.109 26.8975ZM62.109 35.825V40.64C62.109 40.905 61.9753 41.1514 61.7856 41.3917C61.4592 41.8014 60.9711 42.1711 60.3742 42.5131C58.1481 43.7916 54.5511 44.5771 50.5035 44.5771C46.4559 44.5771 42.8554 43.7916 40.6296 42.5131C40.0295 42.1711 39.5476 41.8015 39.2212 41.3917C39.0316 41.1514 38.8979 40.9081 38.8979 40.64V35.828C38.9197 35.8404 38.9445 35.8558 38.9694 35.8681C41.5716 37.3622 45.7687 38.3757 50.5035 38.3757C55.2416 38.3757 59.4359 37.3622 62.0377 35.8681C62.0625 35.8527 62.0841 35.8373 62.109 35.825ZM25.6314 57.7193H38.8974C40.7286 57.7193 42.2147 59.1919 42.2147 61.0064V67.5774H22.3173V61.0064C22.3173 59.1919 23.8003 57.7193 25.6346 57.7193H25.6314ZM62.109 57.7193H75.375C77.2062 57.7193 78.6923 59.1919 78.6923 61.0064V67.5774H58.7948V61.0064C58.7948 59.1919 60.2778 57.7193 62.1121 57.7193H62.109ZM22.3141 70.8645H42.2115C42.2115 72.679 40.7285 74.1515 38.8942 74.1515H25.6282C23.797 74.1515 22.3109 72.679 22.3109 70.8645H22.3141ZM58.7917 70.8645H78.6891C78.6891 72.679 77.2061 74.1515 75.3718 74.1515H62.1058C60.2746 74.1515 58.7885 72.679 58.7885 70.8645H58.7917Z" fill="black"/>
</svg>
