<svg width="100" height="100" viewBox="0 0 100 100" fill="none" xmlns="http://www.w3.org/2000/svg">
<path d="M90.5591 12H9.44086C6.47312 12 4 14.5 4 17.5V83.102C4 86.102 6.47312 88.602 9.44086 88.602H90.5591C93.5269 88.602 96 86.102 96 83.102V17.5C96 14.5 93.5269 12 90.5591 12ZM6.96774 17.5C6.96774 16.1016 8.0575 15 9.44086 15H80.2729V26.102H6.96774V17.5ZM93.0323 83.102C93.0323 84.5004 91.9425 85.602 90.5591 85.602H9.44086C8.0575 85.602 6.96774 84.5004 6.96774 83.102V29.102H93.0323V83.102ZM93.0323 26.102H83.2403V15H90.5591C91.9425 15 93.0323 16.1016 93.0323 17.5V26.102Z" fill="black"/>
<path d="M19.0355 20.5C19.0355 24.5 13.1 24.5 13.1 20.5C13.1 16.5 19.0355 16.5 19.0355 20.5Z" fill="black"/>
<path d="M29.1249 20.5C29.1249 24.5 23.1895 24.5 23.1895 20.5C23.1895 16.5 29.1249 16.5 29.1249 20.5Z" fill="black"/>
<path d="M39.3151 20.5C39.3151 24.5 33.3796 24.5 33.3796 20.5C33.3796 16.5 39.3151 16.5 39.3151 20.5Z" fill="black"/>
<path d="M32.4913 68.199C32.7888 68.4998 33.183 68.5974 33.5811 68.5974C33.9752 68.5974 34.3732 68.4959 34.6708 68.199C35.2659 67.5974 35.2659 66.699 34.6708 66.0974L26.0652 57.3982L34.7713 48.5974C35.3664 47.9958 35.3664 47.0974 34.7713 46.4958C34.1762 45.8942 33.2874 45.8942 32.6923 46.4958L22.7959 56.3005C22.4983 56.6013 22.4017 56.9997 22.4017 57.4021C22.4017 57.8005 22.5988 58.2029 22.7959 58.5037L32.4913 68.199Z" fill="black"/>
<path d="M74.0397 57.403L65.4341 66.1022C64.839 66.7038 64.839 67.6022 65.4341 68.2038C65.7316 68.5046 66.1258 68.6022 66.5238 68.6022C66.918 68.6022 67.316 68.5007 67.6136 68.2038L77.2085 58.5046C77.506 58.2038 77.6026 57.8054 77.6026 57.403C77.6026 57.0046 77.4056 56.6022 77.2085 56.3014L67.5131 46.5006C66.918 45.899 66.0292 45.899 65.4341 46.5006C64.839 47.1022 64.839 48.0006 65.4341 48.6022L74.0397 57.403Z" fill="black"/>
<path d="M37.9321 76C38.2297 76.1992 38.4268 76.1992 38.7243 76.1992C39.2189 76.1992 39.7136 76 40.0111 75.5L62.567 40.699C63.0616 39.9998 62.8645 39.0974 62.1728 38.5974C61.4811 38.0974 60.5884 38.2966 60.0938 38.9958L37.4381 73.9018C37.04 74.601 37.2404 75.6015 37.9321 76Z" fill="black"/>
</svg>
